<svg xmlns="http://www.w3.org/2000/svg" viewBox="0 0 22.22 26.52">
      <g fill="#323333">
        <path
          d="M13.31 6.49h-.79V8.9h1c1.45 0 1.91-.3 1.91-1.23s-.53-1.18-2.12-1.18z"
        ></path>
        <path
          d="M19.55 1.66C18.3.64 16.79 0 13.09 0H5.68L0 5.68v20.84h7.72l5.68-5.68v-2.18a7.52 7.52 0 0 0 2.72-1.5 22 22 0 0 0 4.49-4.56 8 8 0 0 0 1.39-3 8.52 8.52 0 0 0 .23-2 7.63 7.63 0 0 0-2.68-5.94zm-.33 11.16c-1.49 1.26-3 1.71-5.63 1.71h-1.07V20h-6V.86h6.54c3.45 0 4.82.56 5.91 1.47a6.76 6.76 0 0 1 2.39 5.27 7.16 7.16 0 0 1-2.14 5.22z"
        ></path>
      </g>
    </svg>